<?xml version="1.0" encoding="utf-8"?>
<svg width="15.345001px" height="15.705002px" viewBox="0 0 15.345001 15.705002" version="1.1" xmlns:xlink="http://www.w3.org/1999/xlink" xmlns="http://www.w3.org/2000/svg">
  <path d="M-50.88 -160C-54.2634 -160 -57 -157.263 -57 -153.88C-57 -150.497 -54.2634 -147.76 -50.88 -147.76C-49.672 -147.76 -48.5541 -148.114 -47.6063 -148.716L-43.185 -144.295L-41.655 -145.825L-46.02 -150.179C-45.2353 -151.208 -44.76 -152.484 -44.76 -153.88C-44.76 -157.263 -47.4966 -160 -50.88 -160L-50.88 -160ZM-50.88 -158.56C-48.2883 -158.56 -46.2 -156.472 -46.2 -153.88C-46.2 -151.288 -48.2883 -149.2 -50.88 -149.2C-53.4717 -149.2 -55.56 -151.288 -55.56 -153.88C-55.56 -156.472 -53.4717 -158.56 -50.88 -158.56L-50.88 -158.56Z" id="Shape" fill="#222222" fill-rule="evenodd" stroke="none" />
</svg>