<?xml version="1.0" encoding="utf-8"?>
<svg width="15.345001px" height="15.705002px" viewBox="0 0 15.345001 15.705002" version="1.1" xmlns:xlink="http://www.w3.org/1999/xlink" xmlns="http://www.w3.org/2000/svg">
  <g id="Search-icon">
    <path d="M6.12 0C2.73656 0 0 2.73656 0 6.12C0 9.50344 2.73656 12.24 6.12 12.24C7.32797 12.24 8.44594 11.8856 9.39375 11.2838L13.815 15.705L15.345 14.175L10.98 9.82125C11.7647 8.79188 12.24 7.51641 12.24 6.12C12.24 2.73656 9.50344 0 6.12 0L6.12 0ZM6.12 1.44C8.71172 1.44 10.8 3.52828 10.8 6.12C10.8 8.71172 8.71172 10.8 6.12 10.8C3.52828 10.8 1.44 8.71172 1.44 6.12C1.44 3.52828 3.52828 1.44 6.12 1.44L6.12 1.44Z" id="Shape" fill="#222222" fill-rule="evenodd" stroke="none" />
  </g>
</svg>